<?xml version="1.0" encoding="iso-8859-1"?>
<!-- Generator: Adobe Illustrator 19.0.0, SVG Export Plug-In . SVG Version: 6.00 Build 0)  -->
<svg version="1.1" id="Layer_1" xmlns="http://www.w3.org/2000/svg" xmlns:xlink="http://www.w3.org/1999/xlink" x="0px" y="0px"
	 viewBox="0 0 512 512" style="enable-background:new 0 0 512 512;" xml:space="preserve">
<g>
	<g>
		<path d="M495.304,278.26H241.126l29.828-39.582c5.545-7.359,4.077-17.833-3.286-23.381l-26.667-20.094
			c-22.054-16.62-53.522-12.199-70.143,9.857l-31.87,42.294c-3.057-4.625-6.931-8.818-11.605-12.341
			c-22.107-16.66-53.48-12.252-70.142,9.858c-7.714,10.238-10.889,22.501-9.877,34.368c-11.684,2.298-22.599,8.729-30.313,18.966
			c-16.621,22.057-12.199,53.522,9.857,70.143c4.675,3.523,9.772,6.092,15.06,7.755l-31.868,42.292
			c-16.659,22.107-12.253,53.482,9.858,70.142l26.667,20.096c7.363,5.547,17.833,4.077,23.381-3.286l141.48-187.751v144.313
			c0,27.617,22.468,50.086,50.086,50.086h200.343c27.617,0,50.086-22.469,50.086-50.086V294.955
			C511.999,285.735,504.525,278.26,495.304,278.26z M83.907,264.966c5.562-7.383,16.025-8.828,23.38-3.287
			c7.352,5.538,8.825,16.024,3.29,23.376l-10.051,13.338l-13.333-10.047C79.841,282.807,78.367,272.317,83.907,264.966z
			 M43.717,318.298c5.544-7.357,16.034-8.822,23.38-3.286l13.333,10.047l-10.048,13.335c-5.553,7.368-16.01,8.837-23.379,3.285
			C39.651,336.14,38.177,325.651,43.717,318.298z M53.385,471.918l-13.333-10.047c-7.369-5.552-8.841-16.01-3.287-23.38
			l160.76-213.335c5.562-7.38,16.026-8.828,23.381-3.286l13.333,10.047L53.385,471.918z M345.047,478.603h-83.476
			c-9.206,0-16.695-7.49-16.695-16.695V311.65h100.172V478.603z M478.609,461.908c0,9.206-7.49,16.695-16.695,16.695h-83.476V311.65
			h100.172V461.908z"/>
	</g>
</g>
<g>
	<g>
		<path d="M481.354,101.682c-4.756-7.9-15.019-10.448-22.915-5.689c-34.133,20.555-57.311,54.876-63.594,94.163
			c-1.457,9.103,4.745,17.665,13.849,19.122c9.126,1.455,17.668-4.76,19.123-13.849c4.725-29.547,22.166-55.365,47.849-70.832
			C483.564,119.84,486.111,109.581,481.354,101.682z"/>
	</g>
</g>
<g>
	<g>
		<path d="M327.086,190.076c-6.303-39.253-29.477-73.544-63.582-94.082c-7.898-4.758-18.158-2.21-22.915,5.689
			c-4.756,7.899-2.208,18.158,5.69,22.915c25.663,15.455,43.099,41.251,47.84,70.772c1.461,9.104,10.027,15.301,19.131,13.837
			C322.354,207.745,328.549,199.179,327.086,190.076z"/>
	</g>
</g>
<g>
	<g>
		<path d="M361.742,0.006c-9.22,0-16.695,7.475-16.695,16.695v111.302c0,9.22,7.475,16.695,16.695,16.695
			c9.22,0,16.695-7.475,16.695-16.695V16.701C378.437,7.481,370.962,0.006,361.742,0.006z"/>
	</g>
</g>
<g>
	<g>
		<circle cx="244.874" cy="44.532" r="16.695"/>
	</g>
</g>
<g>
	<g>
		<circle cx="445.217" cy="44.532" r="16.695"/>
	</g>
</g>
<g>
</g>
<g>
</g>
<g>
</g>
<g>
</g>
<g>
</g>
<g>
</g>
<g>
</g>
<g>
</g>
<g>
</g>
<g>
</g>
<g>
</g>
<g>
</g>
<g>
</g>
<g>
</g>
<g>
</g>
</svg>
