<?xml version="1.0" encoding="iso-8859-1"?>
<!-- Generator: Adobe Illustrator 19.1.0, SVG Export Plug-In . SVG Version: 6.00 Build 0)  -->
<svg version="1.1" id="Capa_1" xmlns="http://www.w3.org/2000/svg" xmlns:xlink="http://www.w3.org/1999/xlink" x="0px" y="0px"
	 viewBox="0 0 277.5 277.5" style="enable-background:new 0 0 277.5 277.5;" xml:space="preserve">
<g>
	<g>
		<path d="M277.5,127.817h-7.083v-51.13h-32.346L165.946,4.563l-43.671,43.671l-25.658-25.66L42.503,76.688H0v196.25h270.417v-78.87
			h7.083V127.817z M216.858,76.688H115.034l50.912-50.912L216.858,76.688z M96.617,43.787L111.67,58.84L93.821,76.688H63.716
			L96.617,43.787z M255.417,257.938H15V91.688h240.417v36.13H157.5v66.25h97.917L255.417,257.938L255.417,257.938z M262.5,179.067
			h-90v-36.25h90V179.067z"/>
		<rect x="183.333" y="153.442" width="20.833" height="15"/>
	</g>
	<g>
	</g>
	<g>
	</g>
	<g>
	</g>
	<g>
	</g>
	<g>
	</g>
	<g>
	</g>
	<g>
	</g>
	<g>
	</g>
	<g>
	</g>
	<g>
	</g>
	<g>
	</g>
	<g>
	</g>
	<g>
	</g>
	<g>
	</g>
	<g>
	</g>
</g>
<g>
</g>
<g>
</g>
<g>
</g>
<g>
</g>
<g>
</g>
<g>
</g>
<g>
</g>
<g>
</g>
<g>
</g>
<g>
</g>
<g>
</g>
<g>
</g>
<g>
</g>
<g>
</g>
<g>
</g>
</svg>
